# AST/ASF file generated using VICON BodyLanguage
# -----------------------------------------------
:version 1.10
:name VICON
:units
  mass 1.0
  length 0.45
  angle deg
:documentation
   .ast/.asf automatically generated from VICON data using
   VICON BodyBuilder and BodyLanguage model FoxedUp or BRILLIANT.MOD
:root
   order TX TY TZ RX RY RZ
   axis XYZ
   position 0 0 0  
   orientation 0 0 0 
:bonedata
  begin
     id 1 
     name lhipjoint
     direction 0.521689 -0.742065 0.420928 
     length 2.47002 
     axis 0 0 0  XYZ
  end
  begin
     id 2 
     name lfemur
     direction 0.34202 -0.939693 0  
     length 7.24654  
     axis 0 0 20  XYZ
    dof rx ry rz
    limits (-160.0 20.0)
           (-70.0 70.0)
           (-60.0 70.0)
  end
  begin
     id 3 
     name ltibia
     direction 0.34202 -0.939693 0   
     length 8.04849   
     axis 0 0 20   XYZ
    dof rx
    limits (-10.0 170.0)
  end
  begin
     id 4 
     name lfoot
     direction 0.0745411 -0.2048 0.975961   
     length 1.72367   
     axis -90 7.62852e-016 20   XYZ
    dof rx rz
    limits (-45.0 90.0)
           (-70.0 20.0)
  end
  begin
     id 5 
     name ltoes
     direction 1.53556e-011 -4.21901e-011 1   
     length 0.87311   
     axis -90 7.62852e-016 20   XYZ
    dof rx
    limits (-90.0 20.0)
  end
  begin
     id 6 
     name rhipjoint
     direction -0.52849 -0.738415 0.418857   
     length 2.48223  
     axis 0 0 0  XYZ 
  end
  begin
     id 7 
     name rfemur
     direction -0.34202 -0.939693 0   
     length 7.15571   
     axis 0 0 -20   XYZ
    dof rx ry rz
    limits (-160.0 20.0)
           (-70.0 70.0)
           (-70.0 60.0)
  end
  begin
     id 8 
     name rtibia
     direction -0.34202 -0.939693 0   
     length 7.81659   
     axis 0 0 -20   XYZ
    dof rx
    limits (-10.0 170.0)
 end
 begin
     id 9 
     name rfoot
     direction -0.0917348 -0.252039 0.963359   
     length 1.84382  
     axis -90 -7.62852e-016 -20   XYZ
    dof rx rz
    limits (-45.0 90.0)
           (-20.0 70.0)
  end
  begin
     id 10 
     name rtoes
     direction -1.53551e-011 -4.21879e-011 1   
     length 0.927771   
     axis -90 -7.62852e-016 -20   XYZ
    dof rx
    limits (-90.0 20.0)
  end
  begin
     id 11 
     name lowerback
     direction 0.00583058 0.999822 0.0179296   
     length 2.1429   
     axis 0 0 0   XYZ
    dof rx ry rz
    limits (-20.0 45.0)
           (-30.0 30.0)
           (-30.0 30.0)
  end
  begin
     id 12 
     name upperback
     direction -0.0137999 0.999752 -0.0175071   
     length 2.14252   
     axis 0 0 0   XYZ
    dof rx ry rz
    limits (-20.0 45.0)
           (-30.0 30.0)
           (-30.0 30.0)
  end
  begin
     id 13 
     name thorax
     direction -0.0158036 0.99955 -0.0254909   
     length 2.1383   
     axis 0 0 0   XYZ
    dof rx ry rz
    limits (-20.0 45.0)
           (-30.0 30.0)
           (-30.0 30.0)
  end
  begin
     id 14 
     name lowerneck
     direction -0.0101179 0.999403 -0.0330262   
     length 1.65808   
     axis 0 0 0   XYZ
    dof rx ry rz
    limits (-20.0 45.0)
           (-30.0 30.0)
           (-30.0 30.0)
  end
  begin
     id 15 
     name upperneck
     direction 0.0497734 0.995978 -0.074501   
     length 1.5897   
     axis 0 0 0   XYZ
    dof rx ry rz
    limits (-20.0 45.0)
           (-30.0 30.0)
           (-30.0 30.0)
  end
  begin
     id 16
     name head
     direction 0.0189524 0.999519 -0.0245438  
     length 1.74024  
     axis 0 0 0   XYZ
    dof rx ry rz
    limits (-20.0 45.0)
           (-30.0 30.0)
           (-30.0 30.0)
  end
  begin
     id 17 
     name lclavicle
     direction 0.945604 0.324422 0.0241537  
     length 3.59089  
     axis 0 0 0   XYZ
    dof ry rz
    limits (-20.0 10.0)
           (0.0 20.0)
  end
  begin
     id 18 
     name lhumerus
     direction 1 -4.48964e-011 -2.63524e-027   
     length 5.2391   
     axis 180 -30 -90   XYZ
    dof rx ry rz
    limits (-60.0 90.0)
           (-90.0 90.0)
           (-90.0 90.0)
  end
  begin
     id 19
     name lradius
     direction 1 -4.48969e-011 3.86978e-028   
     length 3.31467   
     axis 180 -30 -90   XYZ
    dof rx
    limits (-10.0 170.0)
  end
  begin
     id 20
     name lwrist
     direction 1 -4.48963e-011 7.20928e-028   
     length 1.65734   
     axis -5.52449e-016 90 90   XYZ
    dof ry
    limits (-180.0 0.0)
 end
  begin
     id 21 
     name lhand
     direction 1 -4.48964e-011 1.44186e-027   
     length 0.9659   
     axis -9.20027e-016 90 90   XYZ
    dof rx rz
    limits (-90.0 90.0)
           (-45.0 45.0)
  end
  begin
     id 22 
     name lfingers
     direction 1 -4.48965e-011 2.88371e-027   
     length 0.778733   
     axis -1.84005e-015 90 90   XYZ
    dof rx
    limits (0.0 90.0)
  end
  begin
     id 23
     name lthumb
     direction 0.707107 -6.34931e-011 0.707107   
     length 1.11811   
     axis -90 45 2.85299e-015   XYZ
    dof rx rz
    limits (-45.0 45.0)
           (-45.0 45.0)
  end
  begin
     id 24 
     name rclavicle
     direction -0.923762 0.370785 0.0958234   
     length 3.54196  
     axis 0 0 0   XYZ 
    dof ry rz
    limits (-10.0 20.0)
           (-20.0 0.0)
  end
  begin
     id 25 
     name rhumerus
     direction -1 -4.48966e-011 1.18702e-017  
     length 5.30252   
     axis 180 30 90   XYZ
    dof rx ry rz
    limits (-90.0 60.0)
           (-90.0 90.0)
           (-90.0 90.0)
  end
  begin
     id 26 
     name rradius
     direction -1 -4.48966e-011 4.46736e-027   
     length 3.67875   
     axis 180 30 90   XYZ
    dof rx
    limits (-10.0 170.0)
  end
  begin
     id 27 
     name rwrist
     direction -1 -4.48966e-011 7.20928e-028   
     length 1.83937   
     axis -5.52449e-016 -90 -90   XYZ
    dof ry
    limits (-180.0 0.0)
  end
  begin
     id 28
     name rhand
     direction -1 -4.48973e-011 1.44186e-027   
     length 0.594811   
     axis -9.20027e-016 -90 -90   XYZ
    dof rx rz
    limits (-90.0 90.0)
           (-45.0 45.0)
  end
  begin
     id 29
     name rfingers
     direction -1 -4.48963e-011 2.88371e-027   
     length 0.479552   
     axis -1.84005e-015 -90 -90   XYZ
    dof rx
    limits (0.0 90.0)
  end
  begin
     id 30
     name rthumb
     direction -0.707107 -6.34932e-011 0.707107   
     length 0.688544   
     axis -90 -45 -2.85299e-015   XYZ
    dof rx rz
    limits (-45.0 45.0)
           (-45.0 45.0)
  end
:hierarchy
  begin
    root lhipjoint rhipjoint lowerback
    lhipjoint lfemur
    lfemur ltibia
    ltibia lfoot
    lfoot ltoes
    rhipjoint rfemur
    rfemur rtibia
    rtibia rfoot
    rfoot rtoes
    lowerback upperback
    upperback thorax
    thorax lowerneck lclavicle rclavicle
    lowerneck upperneck
    upperneck head
    lclavicle lhumerus
    lhumerus lradius
    lradius lwrist
    lwrist lhand lthumb
    lhand lfingers
    rclavicle rhumerus
    rhumerus rradius
    rradius rwrist
    rwrist rhand rthumb
    rhand rfingers
  end

#!OML:ASF E:\acrobat2\Project_11_07_03\Capture day 1\Session 1\Acrobat.ASF
:FULLY-SPECIFIED
:DEGREES
488
root 9.15015 15.2533 19.5114 -399.022 -76.5705 -656.419
lowerback 21.1554 4.45542 12.1319
upperback 10.127 7.27434 -1.15689
thorax 1.23465 3.97118 -9.41948
lowerneck -0.809965 5.25094 1.19867
upperneck -0.541455 7.04427 -13.9235
head 0.582572 3.50397 -4.7396
rclavicle 9.22361e-014 -1.59028e-014
rhumerus 29.596 -6.09954 -68.2627
rradius 24.8733
rwrist -19.6813
rhand -18.391 -52.2731
rfingers 7.12502
rthumb 7.89293 -82.1057
lclavicle 9.22361e-014 -1.59028e-014
lhumerus -36.4483 -8.62737 50.132
lradius 14.311
lwrist 4.99732
lhand -44.6022 -29.7527
lfingers 7.12502
lthumb -17.4008 -0.511585
rfemur -44.1243 -4.41643 -10.9724
rtibia 74.2625
rfoot -29.0392 1.2188
rtoes -20.2153
lfemur -62.9675 -5.77583 -1.59819
ltibia 61.8083
lfoot -7.02172 -17.7438
ltoes 50.4985
489
root 9.09423 15.1791 19.7616 -406.055 -78.1697 -649.95
lowerback 21.562 4.59733 10.5689
upperback 10.3129 7.15934 -1.16333
thorax 0.956943 3.8174 -8.57467
lowerneck -0.220004 5.22157 1.38506
upperneck -1.58512 6.87897 -12.5692
head 0.0741187 3.48643 -4.32448
rclavicle -1.59028e-014 -1.11319e-014
rhumerus 26.811 -7.84747 -69.4653
rradius 23.2117
rwrist -17.1549
rhand -20.6365 -51.1583
rfingers 7.12502
rthumb 5.72535 -81.061
lclavicle -1.59028e-014 -1.11319e-014
lhumerus -34.4546 -10.0034 45.9572
lradius 13.2441
lwrist 3.96266
lhand -43.851 -27.3869
lfingers 7.12502
lthumb -16.6778 1.91663
rfemur -45.199 -3.74602 -11.2459
rtibia 75.6276
rfoot -27.1208 1.0836
rtoes -19.9063
lfemur -62.1403 -4.27126 -1.70349
ltibia 64.2299
lfoot -9.77257 -18.0238
ltoes 42.1161
490
root 9.02496 15.1126 19.9947 -415.473 -79.1702 -640.955
lowerback 21.4819 4.85887 8.49956
upperback 10.5815 7.055 -1.18804
thorax 0.95103 3.66875 -7.41097
lowerneck 0.470034 5.25158 1.5315
upperneck -2.64136 6.81657 -11.6742
head -0.422861 3.51057 -4.08214
rclavicle 9.54166e-015 -3.49861e-014
rhumerus 23.9016 -9.85229 -70.5135
rradius 21.691
rwrist -13.7161
rhand -19.504 -52.9575
rfingers 7.12502
rthumb 6.81861 -82.8277
lclavicle 9.54166e-015 -3.49861e-014
lhumerus -31.4557 -4.82011 38.7355
lradius 11.5966
lwrist -2.90854
lhand -43.3551 -26.3463
lfingers 7.12502
lthumb -16.2003 2.9968
rfemur -46.0645 -2.56125 -11.9572
rtibia 76.6138
rfoot -25.3309 0.815274
rtoes -18.5928
lfemur -61.029 -2.78825 -2.48667
ltibia 66.0203
lfoot -10.8452 -19.8315
ltoes 38.7086
491
root 8.95207 15.0744 20.2419 -422.512 -79.8622 -634.522
lowerback 21.4511 4.78024 7.37305
upperback 10.8345 6.69665 -1.18316
thorax 1.01346 3.43333 -6.70466
lowerneck 0.943823 5.28621 1.29644
upperneck -3.37746 6.80079 -10.8778
head -0.781944 3.53522 -3.79594
rclavicle 4.45278e-014 -5.88403e-014
rhumerus 20.8193 -10.7816 -70.1497
rradius 20.4621
rwrist -11.9146
rhand -19.0523 -53.0882
rfingers 7.12502
rthumb 7.25464 -82.9439
lclavicle 4.45278e-014 -5.88403e-014
lhumerus -28.4227 1.2848 31.825
lradius 10.404
lwrist -9.17595
lhand -43.8758 -26.6633
lfingers 7.12502
lthumb -16.7016 2.6382
rfemur -46.295 -4.28017 -12.2581
rtibia 77.3182
rfoot -22.7178 0.99623
rtoes -19.859
lfemur -60.1736 -1.09746 -3.65418
ltibia 66.6985
lfoot -9.82826 -22.0176
ltoes 40.2899
492
root 8.88165 15.0485 20.4875 -428.088 -80.3431 -629.509
lowerback 21.6415 4.68378 7.1614
upperback 10.8789 6.51328 -1.6325
thorax 0.971509 3.34203 -7.05913
lowerneck 0.82578 5.01946 1.54413
upperneck -3.42073 6.48028 -9.53838
head -0.832927 3.35434 -3.37808
rclavicle -3.97569e-014 -2.38542e-014
rhumerus 16.9385 -13.0605 -70.2188
rradius 19.5081
rwrist -10.3568
rhand -20.7773 -52.8931
rfingers 7.12502
rthumb 5.58939 -82.7994
lclavicle -3.97569e-014 -2.38542e-014
lhumerus -24.7156 1.98864 27.2838
lradius 10.7032
lwrist -9.04612
lhand -42.8553 -22.4164
lfingers 7.12502
lthumb -15.719 6.96516
rfemur -46.4021 -5.57157 -12.5801
rtibia 77.9905
rfoot -20.3242 0.567336
rtoes -20.8767
lfemur -59.1693 -0.030455 -4.72228
ltibia 67.2722
lfoot -11.2742 -24.0369
ltoes 38.318
493
root 8.83348 15.0366 20.8054 -424.16 -80.0631 -633.312
lowerback 20.7939 3.88835 7.92962
upperback 10.8211 5.59172 -2.12559
thorax 1.32851 2.96238 -7.80458
lowerneck 0.614324 4.83426 2.11052
upperneck -3.41776 6.26495 -8.77726
head -0.81434 3.22578 -3.21598
rclavicle -3.18055e-015 3.02153e-014
rhumerus 12.2481 -13.2894 -68.8505
rradius 19.6645
rwrist -12.0556
rhand -19.3286 -53.3732
rfingers 7.12502
rthumb 6.98796 -83.2378
lclavicle -3.18055e-015 3.02153e-014
lhumerus -20.9677 -0.158663 24.5641
lradius 11.7409
lwrist -5.39072
lhand -43.3784 -21.8642
lfingers 7.12502
lthumb -16.2227 7.47705
rfemur -46.1874 -8.70474 -13.558
rtibia 78.6327
rfoot -17.9207 0.532501
rtoes -20.0771
lfemur -59.5933 -1.06893 -6.25318
ltibia 67.7972
lfoot -12.2327 -26.1616
ltoes 41.6619
494
root 8.73348 15.0559 20.9309 -436.712 -80.7063 -622.255
lowerback 22.1787 4.37714 5.7049
upperback 11.0292 5.81276 -1.97426
thorax 0.606946 2.90627 -6.53474
lowerneck 0.699255 4.90285 1.93851
upperneck -4.20913 6.31068 -8.44829
head -1.09491 3.26401 -3.0971
rclavicle 6.52014e-014 4.77083e-015
rhumerus 8.26356 -14.076 -68.1669
rradius 19.6173
rwrist -12.5047
rhand -18.1686 -52.6956
rfingers 7.12502
rthumb 8.10761 -82.5201
lclavicle 6.52014e-014 4.77083e-015
lhumerus -18.5121 -4.27412 22.5339
lradius 13.5178
lwrist 0.70417
lhand -44.4976 -22.2514
lfingers 7.12502
lthumb -17.3002 6.99861
rfemur -45.6218 -7.01215 -13.4887
rtibia 78.5301
rfoot -15.5642 0.0361386
rtoes -18.0783
lfemur -55.2485 0.608784 -7.04392
ltibia 66.2435
lfoot -11.0159 -29.2853
ltoes 48.6832
495
root 8.66979 15.0877 21.1606 -437.191 -80.8674 -621.915
lowerback 21.9577 3.87003 5.297
upperback 10.867 5.09336 -2.00388
thorax 0.379663 2.51959 -6.19438
lowerneck 0.832188 4.98056 1.55246
upperneck -4.85428 6.37764 -8.05055
head -1.34541 3.3119 -2.91733
rclavicle 6.20208e-014 6.83819e-014
rhumerus 3.88792 -14.0242 -66.9256
rradius 20.2337
rwrist -13.7209
rhand -17.4666 -52.7333
rfingers 7.12502
rthumb 8.78507 -82.5305
lclavicle 6.20208e-014 6.83819e-014
lhumerus -16.1848 -8.73517 20.5759
lradius 15.684
lwrist 5.91226
lhand -44.0953 -21.5668
lfingers 7.12502
lthumb -16.9129 7.71679
rfemur -45.5596 -8.28871 -13.862
rtibia 78.6634
rfoot -13.208 -0.555121
rtoes -15.3202
lfemur -53.9573 -0.107777 -7.7885
ltibia 65.8613
lfoot -16.4468 -29.226
ltoes 43.3451
496
root 8.60922 15.1358 21.3708 -437.834 -81.2847 -621.218
lowerback 21.6976 3.58061 5.05685
upperback 10.5962 4.70198 -1.93726
thorax 0.117727 2.30335 -5.90552
lowerneck 1.05861 5.07561 0.387039
upperneck -5.46895 6.48659 -6.81389
head -1.65062 3.38018 -2.33176
rclavicle -1.90833e-014 -1.74931e-014
rhumerus -0.654203 -14.8583 -65.4697
rradius 20.7304
rwrist -13.8592
rhand -17.7614 -53.1551
rfingers 7.12502
rthumb 8.50061 -82.964
lclavicle -1.90833e-014 -1.74931e-014
lhumerus -13.3389 -13.2164 18.5116
lradius 18.0159
lwrist 9.18322
lhand -43.8138 -24.3458
lfingers 7.12502
lthumb -16.642 4.96075
rfemur -45.8662 -9.33024 -13.8474
rtibia 78.6084
rfoot -10.8755 -1.87451
rtoes -14.8384
lfemur -54.5023 -0.680242 -7.98983
ltibia 66.714
lfoot -22.9837 -25.9063
ltoes 28.4462
